<?xml version="1.0" encoding="utf-8"?>
<!-- Svg Vector Icons : http://www.onlinewebfonts.com/icon -->
<!DOCTYPE svg PUBLIC "-//W3C//DTD SVG 1.1//EN" "http://www.w3.org/Graphics/SVG/1.1/DTD/svg11.dtd">
<svg version="1.1" xmlns="http://www.w3.org/2000/svg" xmlns:xlink="http://www.w3.org/1999/xlink" x="0px" y="0px" viewBox="0 0 1000 1000" enable-background="new 0 0 1000 1000" xml:space="preserve">
<metadata> Svg Vector Icons : http://www.onlinewebfonts.com/icon </metadata>
<g><g><g><path style="fill:#ffffff;" d="M796.1,990c-106.9,0-193.9-87-193.9-193.9c0-106.9,87-193.9,193.9-193.9c25,0,49.7,4.8,72.6,14.1V308.9H397.7v487.2c0,106.9-87,193.9-193.9,193.9C97,990,10,903,10,796.1c0-106.9,87-193.9,193.9-193.9c25,0,49.7,4.8,72.6,14.1V115c0-57.9,47.1-105,105-105H885c57.9,0,105,47.1,105,105v681.1C990,903,903,990,796.1,990z M796.1,634.6c-89,0-161.5,72.4-161.5,161.5c0,89.1,72.5,161.5,161.5,161.5s161.5-72.5,161.5-161.5V115c0-40-32.6-72.6-72.6-72.6H381.5c-40.1,0-72.6,32.6-72.6,72.6v527.2c0,5.8-3.1,11.1-8.1,14c-5,2.9-11.2,2.9-16.2,0c-24.4-14.1-52.3-21.6-80.7-21.6c-89.1,0-161.5,72.4-161.5,161.5c0,89.1,72.4,161.5,161.5,161.5c89.1,0,161.5-72.5,161.5-161.5V292.7c0-9,7.3-16.2,16.2-16.2H885c8.9,0,16.2,7.2,16.2,16.2v349.6c0,5.8-3.1,11.1-8.1,14c-5,2.9-11.2,2.9-16.2,0C852.4,642.1,824.5,634.6,796.1,634.6z"/></g></g><g></g><g></g><g></g><g></g><g></g><g></g><g></g><g></g><g></g><g></g><g></g><g></g><g></g><g></g><g></g></g>
</svg>